<svg width="1391" height="559" viewBox="0 0 1391 559" fill="none" xmlns="http://www.w3.org/2000/svg">
<path d="M3.25389 0.736835V85.5268H74.5375L0.252476 480.963V559H181.838V473.46H102.301L178.086 78.7736V0.736835H3.25389ZM194.489 0.736835V559H357.315V471.959H287.532V310.633H344.559V222.091H287.532V86.2771H355.064V0.736835H194.489ZM371.085 0.736835V559H450.623L449.873 224.342L494.143 559H581.935V0.736835H503.148L503.898 303.129L467.131 0.736835H371.085ZM596.778 559H734.093C776.112 559 806.127 533.488 806.127 474.21V81.0247C806.127 21.7467 773.861 0.736835 732.592 0.736835H596.778V559ZM689.822 77.2729H698.826C707.83 77.2729 710.081 83.2758 710.081 94.531V461.454C710.081 474.21 707.83 480.213 698.826 480.213H689.822V77.2729ZM924.624 376.664H902.113L913.368 164.314L924.624 376.664ZM934.378 559H1026.67L976.398 0.736835H856.342L809.82 559H891.608L896.861 458.453H929.126L934.378 559ZM1053.06 559H1147.6V339.146L1203.88 0.736835H1119.09L1102.58 193.578L1086.07 0.736835H991.528L1053.06 339.146V559ZM1288.08 376.664H1265.57L1276.82 164.314L1288.08 376.664ZM1297.83 559H1390.12L1339.85 0.736835H1219.79L1173.27 559H1255.06L1260.31 458.453H1292.58L1297.83 559Z" fill="#242424"/>
</svg>
