<svg width="203" height="36" viewBox="0 0 203 36" fill="none" xmlns="http://www.w3.org/2000/svg">
<path d="M13.12 3.2C14.56 3.2 16.0533 3.38667 17.6 3.76C19.1467 4.13333 20.5067 4.78667 21.68 5.72L17.84 10.4C17.2 9.84 16.4667 9.44 15.64 9.2C14.8133 8.93333 13.9733 8.77333 13.12 8.72V15.08L16.96 16.2C18.72 16.7333 20.12 17.6133 21.16 18.84C22.2267 20.04 22.76 21.5733 22.76 23.44C22.76 24.8533 22.5067 26.0933 22 27.16C21.4933 28.2267 20.8 29.1333 19.92 29.88C19.04 30.6267 18.0133 31.2133 16.84 31.64C15.6667 32.0667 14.4267 32.3467 13.12 32.48V35.28H10.48V32.48C8.72 32.48 6.96 32.24 5.2 31.76C3.46667 31.28 1.93333 30.44 0.6 29.24L4.84 24.48C5.53333 25.3333 6.37333 25.9467 7.36 26.32C8.34667 26.6667 9.38667 26.88 10.48 26.96V20.2L7.56 19.32C5.53333 18.68 3.98667 17.7867 2.92 16.64C1.88 15.4667 1.36 13.8667 1.36 11.84C1.36 10.5867 1.61333 9.45333 2.12 8.44C2.62667 7.42667 3.29333 6.56 4.12 5.84C4.97333 5.12 5.94667 4.53333 7.04 4.08C8.16 3.62667 9.30667 3.33333 10.48 3.2V0.399999H13.12V3.2ZM10.48 8.84C9.73333 9 9.06667 9.28 8.48 9.68C7.89333 10.08 7.6 10.7067 7.6 11.56C7.6 12.1733 7.72 12.6533 7.96 13C8.2 13.3467 8.48 13.6267 8.8 13.84C9.12 14.0267 9.44 14.16 9.76 14.24C10.08 14.32 10.32 14.3867 10.48 14.44V8.84ZM13.12 26.88C13.52 26.8 13.92 26.6933 14.32 26.56C14.7467 26.4 15.12 26.2 15.44 25.96C15.76 25.72 16.0133 25.44 16.2 25.12C16.4133 24.7733 16.52 24.3733 16.52 23.92C16.52 23.4933 16.44 23.1333 16.28 22.84C16.1467 22.5467 15.96 22.3067 15.72 22.12C15.48 21.9067 15.2 21.7333 14.88 21.6C14.56 21.44 14.2267 21.2933 13.88 21.16L13.12 20.88V26.88ZM35.1919 10.4L29.5119 15.4L26.1119 11.48L35.3519 3.68H40.9519V32H35.1919V10.4ZM50.2238 3.68H60.7838C62.0104 3.68 63.2371 3.77333 64.4638 3.96C65.7171 4.12 66.8371 4.46667 67.8238 5C68.8104 5.50667 69.6104 6.22667 70.2238 7.16C70.8371 8.09333 71.1438 9.33333 71.1438 10.88C71.1438 12.48 70.6904 13.8133 69.7838 14.88C68.9038 15.92 67.7304 16.6667 66.2638 17.12V17.2C67.1971 17.3333 68.0371 17.6 68.7838 18C69.5571 18.3733 70.2104 18.8667 70.7438 19.48C71.3038 20.0667 71.7304 20.76 72.0238 21.56C72.3171 22.36 72.4638 23.2133 72.4638 24.12C72.4638 25.6133 72.1438 26.8667 71.5038 27.88C70.8638 28.8667 70.0371 29.6667 69.0238 30.28C68.0104 30.8933 66.8638 31.3333 65.5838 31.6C64.3304 31.8667 63.0771 32 61.8238 32H50.2238V3.68ZM56.4638 15H60.9838C61.4638 15 61.9304 14.9467 62.3838 14.84C62.8638 14.7333 63.2904 14.56 63.6638 14.32C64.0371 14.08 64.3304 13.76 64.5438 13.36C64.7838 12.96 64.9038 12.48 64.9038 11.92C64.9038 11.3333 64.7704 10.8533 64.5038 10.48C64.2638 10.08 63.9438 9.77333 63.5438 9.56C63.1438 9.34667 62.6904 9.2 62.1838 9.12C61.6771 9.01333 61.1838 8.96 60.7038 8.96H56.4638V15ZM56.4638 26.72H62.0638C62.5438 26.72 63.0238 26.6667 63.5038 26.56C64.0104 26.4533 64.4638 26.2667 64.8638 26C65.2638 25.7333 65.5838 25.3867 65.8238 24.96C66.0904 24.5333 66.2238 24.0133 66.2238 23.4C66.2238 22.7333 66.0504 22.2 65.7038 21.8C65.3838 21.3733 64.9704 21.0533 64.4638 20.84C63.9571 20.6267 63.4104 20.48 62.8238 20.4C62.2371 20.32 61.6904 20.28 61.1838 20.28H56.4638V26.72ZM76.0813 3.68H82.3213V32H76.0813V3.68ZM88.2372 3.68H94.4772V26.24H106.037V32H88.2372V3.68ZM109.722 3.68H115.962V26.24H127.522V32H109.722V3.68ZM130.886 3.68H137.126V32H130.886V3.68ZM141.282 17.84C141.282 15.5733 141.655 13.52 142.402 11.68C143.175 9.84 144.242 8.28 145.602 7C146.962 5.69333 148.575 4.69333 150.442 4C152.309 3.30667 154.349 2.96 156.562 2.96C158.775 2.96 160.815 3.30667 162.682 4C164.549 4.69333 166.162 5.69333 167.522 7C168.882 8.28 169.935 9.84 170.682 11.68C171.455 13.52 171.842 15.5733 171.842 17.84C171.842 20.1067 171.455 22.16 170.682 24C169.935 25.84 168.882 27.4133 167.522 28.72C166.162 30 164.549 30.9867 162.682 31.68C160.815 32.3733 158.775 32.72 156.562 32.72C154.349 32.72 152.309 32.3733 150.442 31.68C148.575 30.9867 146.962 30 145.602 28.72C144.242 27.4133 143.175 25.84 142.402 24C141.655 22.16 141.282 20.1067 141.282 17.84ZM147.762 17.84C147.762 19.1733 147.962 20.4 148.362 21.52C148.789 22.6133 149.389 23.5733 150.162 24.4C150.935 25.2 151.855 25.8267 152.922 26.28C154.015 26.7333 155.229 26.96 156.562 26.96C157.895 26.96 159.095 26.7333 160.162 26.28C161.255 25.8267 162.189 25.2 162.962 24.4C163.735 23.5733 164.322 22.6133 164.722 21.52C165.149 20.4 165.362 19.1733 165.362 17.84C165.362 16.5333 165.149 15.32 164.722 14.2C164.322 13.08 163.735 12.12 162.962 11.32C162.189 10.4933 161.255 9.85333 160.162 9.4C159.095 8.94667 157.895 8.72 156.562 8.72C155.229 8.72 154.015 8.94667 152.922 9.4C151.855 9.85333 150.935 10.4933 150.162 11.32C149.389 12.12 148.789 13.08 148.362 14.2C147.962 15.32 147.762 16.5333 147.762 17.84ZM176.083 3.68H184.563L196.603 23.36H196.683V3.68H202.923V32H194.763L182.403 11.84H182.323V32H176.083V3.68Z" fill="white"/>
</svg>
