<svg width="188" height="21" viewBox="0 0 188 21" fill="none" xmlns="http://www.w3.org/2000/svg">
<rect x="137.9" y="4.9" width="24.2" height="12.2" rx="6.1" stroke="black" stroke-width="1.8"/>
<path d="M2.36114 4.358V18H7.35814C10.4551 18 12.2791 16.708 12.2791 14.124C12.2791 12.3 10.8921 11.065 9.48614 10.856C10.7591 10.438 11.6521 9.431 11.6521 7.74C11.6521 5.137 9.61914 4.358 7.11114 4.358H2.36114ZM4.18514 10.21V5.954H6.84514C8.72614 5.954 9.75214 6.543 9.75214 8.006C9.75214 9.317 9.01114 10.21 6.95914 10.21H4.18514ZM4.18514 16.461V11.73H7.18714C9.16314 11.73 10.3791 12.376 10.3791 14.048C10.3791 15.587 9.37214 16.461 7.28214 16.461H4.18514ZM24.6701 18V17.43L20.5281 12.224C22.3901 11.901 24.0051 10.628 24.0051 8.253C24.0051 5.232 21.5921 4.358 18.9891 4.358H14.5241V18H16.3671V12.395H18.5141L22.8651 18H24.6701ZM16.3671 10.799V5.954H19.0461C21.1741 5.954 22.1621 6.714 22.1621 8.329C22.1621 9.849 21.0601 10.799 18.9131 10.799H16.3671ZM32.373 4.111C28.326 4.111 25.647 7.037 25.647 11.198C25.647 15.378 28.288 18.266 32.392 18.266C36.515 18.266 39.156 15.378 39.156 11.198C39.156 7.018 36.439 4.111 32.373 4.111ZM32.373 5.688C35.394 5.688 37.218 7.987 37.218 11.179C37.218 14.371 35.394 16.689 32.373 16.689C29.371 16.689 27.547 14.352 27.547 11.179C27.547 8.006 29.352 5.688 32.373 5.688ZM57.2182 5.023V4.358H55.5082L54.1212 10.286C53.6652 12.414 53.1902 14.561 52.9242 16.233H52.8292C52.4682 14.352 52.0502 12.338 51.5182 10.191L50.0932 4.358H47.5852L46.1032 10.362C45.5332 12.718 45.1152 14.485 44.7922 16.252H44.6972C44.3932 14.466 43.9752 12.509 43.5382 10.571L42.1322 4.358H40.3462V5.023L43.4052 18H45.9702L47.6232 11.103C48.0792 9.203 48.4592 7.531 48.7632 5.973H48.8392C49.1242 7.436 49.3332 8.405 49.9982 11.236L51.6132 18H54.0642L57.2182 5.023ZM59.9936 14.295L58.1696 14.447C58.6066 16.955 60.4686 18.285 63.2806 18.285C66.1306 18.285 68.2396 16.67 68.2396 14.219C68.2396 11.863 66.7576 11.103 64.3636 10.381L63.1476 10.02C61.5706 9.526 60.6016 9.032 60.6016 7.759C60.6016 6.486 61.6656 5.688 63.2426 5.688C64.8956 5.688 65.7506 6.429 66.1496 7.702L67.9166 7.55C67.5746 5.46 66.0166 4.111 63.2996 4.111C60.4876 4.111 58.6256 5.612 58.6256 7.854C58.6256 10.001 60.0506 11.027 62.3876 11.692L63.6036 12.034C65.2756 12.509 66.3016 12.946 66.3016 14.352C66.3016 15.758 65.1426 16.708 63.3186 16.708C61.4756 16.708 60.3546 15.796 59.9936 14.295ZM70.4494 4.358V18H79.2654V16.385H72.2924V11.825H78.6384V10.191H72.2924V5.992H79.0944V4.358H70.4494ZM91.775 18V17.43L87.633 12.224C89.495 11.901 91.11 10.628 91.11 8.253C91.11 5.232 88.697 4.358 86.094 4.358H81.629V18H83.472V12.395H85.619L89.97 18H91.775ZM83.472 10.799V5.954H86.151C88.279 5.954 89.267 6.714 89.267 8.329C89.267 9.849 88.165 10.799 86.018 10.799H83.472Z" fill="black"/>
<path d="M100.156 11.787H106.958V18H108.801V4.358H106.958V10.153H100.156V4.358H98.2935V18H100.156V11.787ZM111.922 4.358V18H113.784V4.358H111.922ZM117.703 14.295L115.879 14.447C116.316 16.955 118.178 18.285 120.99 18.285C123.84 18.285 125.949 16.67 125.949 14.219C125.949 11.863 124.467 11.103 122.073 10.381L120.857 10.02C119.28 9.526 118.311 9.032 118.311 7.759C118.311 6.486 119.375 5.688 120.952 5.688C122.605 5.688 123.46 6.429 123.859 7.702L125.626 7.55C125.284 5.46 123.726 4.111 121.009 4.111C118.197 4.111 116.335 5.612 116.335 7.854C116.335 10.001 117.76 11.027 120.097 11.692L121.313 12.034C122.985 12.509 124.011 12.946 124.011 14.352C124.011 15.758 122.852 16.708 121.028 16.708C119.185 16.708 118.064 15.796 117.703 14.295ZM130.804 6.011V18H132.666V6.011H136.77V4.358H126.681V6.011H130.804Z" fill="black"/>
<path d="M175.5 18V17.43L171.358 12.224C173.22 11.901 174.835 10.628 174.835 8.253C174.835 5.232 172.422 4.358 169.819 4.358H165.354V18H167.197V12.395H169.344L173.695 18H175.5ZM167.197 10.799V5.954H169.876C172.004 5.954 172.992 6.714 172.992 8.329C172.992 9.849 171.89 10.799 169.743 10.799H167.197ZM180.506 12.756V18H182.368V12.756L186.928 5.023V4.358H185.294L183.565 7.436C182.919 8.595 182.159 9.887 181.513 11.046C180.772 9.773 180.221 8.728 179.48 7.417L177.751 4.358H176.022V5.023L180.506 12.756Z" fill="black"/>
</svg>
