<svg width="27" height="21" viewBox="0 0 27 21" fill="none" xmlns="http://www.w3.org/2000/svg">
<path d="M5.39673 11.1532L13.656 2.90131C14.2256 2.33222 14.9661 2.01921 15.7636 2.01921C16.561 2.01921 17.3015 2.33222 17.8711 2.90131L18.5262 3.55577L19.8078 2.27531L19.1527 1.62085C18.2413 0.710293 17.0452 0.226562 15.7636 0.226562C14.4819 0.226562 13.2858 0.710293 12.3744 1.62085L4.11511 9.87273L5.39673 11.1532Z" fill="black"/>
<path d="M16.4189 5.63405L15.1373 4.35358L6.878 12.6055C5.7103 13.7721 3.8306 13.7721 2.66291 12.6055C1.49522 11.4388 1.49522 9.5608 2.66291 8.39416L9.78299 1.28046L8.52985 0L1.40978 7.11369C-0.469925 8.99171 -0.469925 12.0079 1.40978 13.8859C2.32115 14.7965 3.51732 15.2802 4.79893 15.2802C6.08055 15.2802 7.27672 14.7965 8.18809 13.8859L16.4189 5.63405Z" fill="black"/>
<path d="M24.6494 7.11303C23.7381 6.20248 22.5419 5.71875 21.2603 5.71875C19.9787 5.71875 18.7825 6.20248 17.8711 7.11303L9.61182 15.3649L10.8934 16.6454L19.1527 8.3935C20.3204 7.22685 22.2001 7.22685 23.3678 8.3935C23.9374 8.96259 24.2507 9.70242 24.2507 10.4992C24.2507 11.2959 23.9374 12.0357 23.3678 12.6048L16.2477 19.7185L17.5293 20.999L24.6494 13.8853C26.5291 12.0073 26.5291 8.99105 24.6494 7.11303Z" fill="black"/>
<path d="M20.6341 9.84375L12.3749 18.0956C11.2072 19.2623 9.32746 19.2623 8.15977 18.0956L7.50472 17.4412L6.25159 18.7216L6.90663 19.3761C7.818 20.2866 9.01418 20.7704 10.2958 20.7704C11.5774 20.7704 12.7736 20.2866 13.6849 19.3761L21.9442 11.1242L20.6341 9.84375Z" fill="black"/>
</svg>
