<svg width="220" height="22" viewBox="0 0 220 22" fill="none" xmlns="http://www.w3.org/2000/svg">
<rect x="169.9" y="4.9" width="24.2" height="12.2" rx="6.1" stroke="black" stroke-width="1.8"/>
<path d="M34.2067 4.31028V18H39.2212C42.3291 18 44.1594 16.7035 44.1594 14.1104C44.1594 12.2801 42.7676 11.0407 41.3567 10.831C42.6341 10.4115 43.5302 9.40102 43.5302 7.70411C43.5302 5.092 41.4901 4.31028 38.9734 4.31028H34.2067ZM36.0371 10.1827V5.91186H38.7064C40.594 5.91186 41.6236 6.50292 41.6236 7.97104C41.6236 9.28663 40.88 10.1827 38.8208 10.1827H36.0371ZM36.0371 16.4556V11.7081H39.0496C41.0325 11.7081 42.2528 12.3563 42.2528 14.0342C42.2528 15.5786 41.2423 16.4556 39.145 16.4556H36.0371ZM56.5938 18V17.428L52.4373 12.2038C54.3058 11.8797 55.9264 10.6022 55.9264 8.2189C55.9264 5.18734 53.505 4.31028 50.8929 4.31028H46.4123V18H48.2617V12.3754H50.4162L54.7824 18H56.5938ZM48.2617 10.7738V5.91186H50.9501C53.0855 5.91186 54.077 6.67452 54.077 8.29517C54.077 9.82049 52.9711 10.7738 50.8166 10.7738H48.2617ZM64.3236 4.06242C60.2624 4.06242 57.574 6.99865 57.574 11.1742C57.574 15.3688 60.2243 18.2669 64.3426 18.2669C68.4801 18.2669 71.1303 15.3688 71.1303 11.1742C71.1303 6.97958 68.4038 4.06242 64.3236 4.06242ZM64.3236 5.64493C67.3551 5.64493 69.1855 7.95197 69.1855 11.1551C69.1855 14.3583 67.3551 16.6844 64.3236 16.6844C61.3111 16.6844 59.4807 14.3392 59.4807 11.1551C59.4807 7.97104 61.292 5.64493 64.3236 5.64493ZM89.2556 4.9776V4.31028H87.5397L86.1478 10.259C85.6902 12.3945 85.2136 14.549 84.9466 16.2268H84.8513C84.489 14.3392 84.0696 12.3182 83.5357 10.1637L82.1057 4.31028H79.5889L78.1018 10.3353C77.5298 12.6995 77.1103 14.4727 76.7862 16.2459H76.6908C76.3858 14.4536 75.9663 12.4898 75.5278 10.545L74.1169 4.31028H72.3246V4.9776L75.3943 18H77.9683L79.6271 11.0789C80.0847 9.17223 80.466 7.49438 80.7711 5.93093H80.8473C81.1333 7.39905 81.3431 8.37144 82.0104 11.2123L83.631 18H86.0906L89.2556 4.9776ZM92.0408 14.282L90.2105 14.4346C90.649 16.9513 92.5175 18.286 95.3393 18.286C98.1993 18.286 100.316 16.6653 100.316 14.2058C100.316 11.8415 98.8285 11.0789 96.4261 10.3543L95.2059 9.99209C93.6234 9.49636 92.651 9.00063 92.651 7.72318C92.651 6.44572 93.7187 5.64493 95.3012 5.64493C96.96 5.64493 97.818 6.38852 98.2184 7.66598L99.9916 7.51344C99.6484 5.41613 98.0849 4.06242 95.3584 4.06242C92.5366 4.06242 90.6681 5.56867 90.6681 7.81851C90.6681 9.97302 92.098 11.0026 94.4432 11.6699L95.6635 12.0131C97.3413 12.4898 98.3709 12.9283 98.3709 14.3392C98.3709 15.7502 97.2079 16.7035 95.3775 16.7035C93.528 16.7035 92.4031 15.7883 92.0408 14.282ZM102.533 4.31028V18H111.38V16.3794H104.383V11.8034H110.751V10.1637H104.383V5.94999H111.208V4.31028H102.533ZM123.933 18V17.428L119.777 12.2038C121.645 11.8797 123.266 10.6022 123.266 8.2189C123.266 5.18734 120.845 4.31028 118.232 4.31028H113.752V18H115.601V12.3754H117.756L122.122 18H123.933ZM115.601 10.7738V5.91186H118.29C120.425 5.91186 121.417 6.67452 121.417 8.29517C121.417 9.82049 120.311 10.7738 118.156 10.7738H115.601Z" fill="black"/>
<path d="M132.099 11.7653H138.924V18H140.774V4.31028H138.924V10.1256H132.099V4.31028H130.23V18H132.099V11.7653ZM143.907 4.31028V18H145.775V4.31028H143.907ZM149.707 14.282L147.877 14.4346C148.315 16.9513 150.184 18.286 153.006 18.286C155.866 18.286 157.982 16.6653 157.982 14.2058C157.982 11.8415 156.495 11.0789 154.092 10.3543L152.872 9.99209C151.29 9.49636 150.317 9.00063 150.317 7.72318C150.317 6.44572 151.385 5.64493 152.967 5.64493C154.626 5.64493 155.484 6.38852 155.885 7.66598L157.658 7.51344C157.315 5.41613 155.751 4.06242 153.025 4.06242C150.203 4.06242 148.334 5.56867 148.334 7.81851C148.334 9.97302 149.764 11.0026 152.11 11.6699L153.33 12.0131C155.008 12.4898 156.037 12.9283 156.037 14.3392C156.037 15.7502 154.874 16.7035 153.044 16.7035C151.194 16.7035 150.069 15.7883 149.707 14.282ZM162.855 5.96906V18H164.723V5.96906H168.842V4.31028H158.717V5.96906H162.855Z" fill="black"/>
<path d="M207.5 18V17.428L203.344 12.2038C205.212 11.8797 206.833 10.6022 206.833 8.2189C206.833 5.18734 204.411 4.31028 201.799 4.31028H197.319V18H199.168V12.3754H201.323L205.689 18H207.5ZM199.168 10.7738V5.91186H201.857C203.992 5.91186 204.983 6.67452 204.983 8.29517C204.983 9.82049 203.878 10.7738 201.723 10.7738H199.168ZM212.524 12.7377V18H214.392V12.7377L218.968 4.9776V4.31028H217.329L215.594 7.39905C214.945 8.5621 214.183 9.85862 213.535 11.0217C212.791 9.74422 212.238 8.69557 211.494 7.37998L209.759 4.31028H208.024V4.9776L212.524 12.7377Z" fill="black"/>
<path d="M5.39685 12.1542L13.6561 3.90229C14.2257 3.33319 14.9662 3.02019 15.7637 3.02019C16.5611 3.02019 17.3016 3.33319 17.8712 3.90229L18.5263 4.55675L19.8079 3.27628L19.1528 2.62182C18.2415 1.71127 17.0453 1.22754 15.7637 1.22754C14.4821 1.22754 13.2859 1.71127 12.3745 2.62182L4.11523 10.8737L5.39685 12.1542Z" fill="black"/>
<path d="M16.4189 6.63405L15.1373 5.35358L6.878 13.6055C5.7103 14.7721 3.8306 14.7721 2.66291 13.6055C1.49522 12.4388 1.49522 10.5608 2.66291 9.39416L9.78299 2.28046L8.52985 1L1.40978 8.11369C-0.469925 9.99171 -0.469925 13.0079 1.40978 14.8859C2.32115 15.7965 3.51732 16.2802 4.79893 16.2802C6.08055 16.2802 7.27672 15.7965 8.18809 14.8859L16.4189 6.63405Z" fill="black"/>
<path d="M24.6499 8.11401C23.7385 7.20346 22.5424 6.71973 21.2608 6.71973C19.9791 6.71973 18.783 7.20346 17.8716 8.11401L9.6123 16.3659L10.8939 17.6464L19.1532 9.39448C20.3209 8.22783 22.2006 8.22783 23.3683 9.39448C23.9379 9.96357 24.2512 10.7034 24.2512 11.5001C24.2512 12.2969 23.9379 13.0367 23.3683 13.6058L16.2482 20.7195L17.5298 21.9999L24.6499 14.8862C26.5296 13.0082 26.5296 9.99203 24.6499 8.11401Z" fill="black"/>
<path d="M20.6345 10.8457L12.3752 19.0976C11.2075 20.2642 9.32783 20.2642 8.16013 19.0976L7.50509 18.4431L6.25195 19.7236L6.907 20.378C7.81837 21.2886 9.01454 21.7723 10.2962 21.7723C11.5778 21.7723 12.7739 21.2886 13.6853 20.378L21.9446 12.1262L20.6345 10.8457Z" fill="black"/>
</svg>
