<svg width="220" height="22" viewBox="0 0 220 22" fill="none" xmlns="http://www.w3.org/2000/svg">
<rect x="169.9" y="4.9" width="24.2" height="12.2" rx="6.1" stroke="#EFEDEA" stroke-width="1.8"/>
<path d="M34.3611 4.358V18H39.3581C42.4551 18 44.2791 16.708 44.2791 14.124C44.2791 12.3 42.8921 11.065 41.4861 10.856C42.7591 10.438 43.6521 9.431 43.6521 7.74C43.6521 5.137 41.6191 4.358 39.1111 4.358H34.3611ZM36.1851 10.21V5.954H38.8451C40.7261 5.954 41.7521 6.543 41.7521 8.006C41.7521 9.317 41.0111 10.21 38.9591 10.21H36.1851ZM36.1851 16.461V11.73H39.1871C41.1631 11.73 42.3791 12.376 42.3791 14.048C42.3791 15.587 41.3721 16.461 39.2821 16.461H36.1851ZM56.6701 18V17.43L52.5281 12.224C54.3901 11.901 56.0051 10.628 56.0051 8.253C56.0051 5.232 53.5921 4.358 50.9891 4.358H46.5241V18H48.3671V12.395H50.5141L54.8651 18H56.6701ZM48.3671 10.799V5.954H51.0461C53.1741 5.954 54.1621 6.714 54.1621 8.329C54.1621 9.849 53.0601 10.799 50.9131 10.799H48.3671ZM64.373 4.111C60.326 4.111 57.647 7.037 57.647 11.198C57.647 15.378 60.288 18.266 64.392 18.266C68.515 18.266 71.156 15.378 71.156 11.198C71.156 7.018 68.439 4.111 64.373 4.111ZM64.373 5.688C67.394 5.688 69.218 7.987 69.218 11.179C69.218 14.371 67.394 16.689 64.373 16.689C61.371 16.689 59.547 14.352 59.547 11.179C59.547 8.006 61.352 5.688 64.373 5.688ZM89.2182 5.023V4.358H87.5082L86.1212 10.286C85.6652 12.414 85.1902 14.561 84.9242 16.233H84.8292C84.4682 14.352 84.0502 12.338 83.5182 10.191L82.0932 4.358H79.5852L78.1032 10.362C77.5332 12.718 77.1152 14.485 76.7922 16.252H76.6972C76.3932 14.466 75.9752 12.509 75.5382 10.571L74.1322 4.358H72.3462V5.023L75.4052 18H77.9702L79.6232 11.103C80.0792 9.203 80.4592 7.531 80.7632 5.973H80.8392C81.1242 7.436 81.3332 8.405 81.9982 11.236L83.6132 18H86.0642L89.2182 5.023ZM91.9936 14.295L90.1696 14.447C90.6066 16.955 92.4686 18.285 95.2806 18.285C98.1306 18.285 100.24 16.67 100.24 14.219C100.24 11.863 98.7576 11.103 96.3636 10.381L95.1476 10.02C93.5706 9.526 92.6016 9.032 92.6016 7.759C92.6016 6.486 93.6656 5.688 95.2426 5.688C96.8956 5.688 97.7506 6.429 98.1496 7.702L99.9166 7.55C99.5746 5.46 98.0166 4.111 95.2996 4.111C92.4876 4.111 90.6256 5.612 90.6256 7.854C90.6256 10.001 92.0506 11.027 94.3876 11.692L95.6036 12.034C97.2756 12.509 98.3016 12.946 98.3016 14.352C98.3016 15.758 97.1426 16.708 95.3186 16.708C93.4756 16.708 92.3546 15.796 91.9936 14.295ZM102.449 4.358V18H111.265V16.385H104.292V11.825H110.638V10.191H104.292V5.992H111.094V4.358H102.449ZM123.775 18V17.43L119.633 12.224C121.495 11.901 123.11 10.628 123.11 8.253C123.11 5.232 120.697 4.358 118.094 4.358H113.629V18H115.472V12.395H117.619L121.97 18H123.775ZM115.472 10.799V5.954H118.151C120.279 5.954 121.267 6.714 121.267 8.329C121.267 9.849 120.165 10.799 118.018 10.799H115.472Z" fill="#EFEDEA"/>
<path d="M132.156 11.787H138.958V18H140.801V4.358H138.958V10.153H132.156V4.358H130.294V18H132.156V11.787ZM143.922 4.358V18H145.784V4.358H143.922ZM149.703 14.295L147.879 14.447C148.316 16.955 150.178 18.285 152.99 18.285C155.84 18.285 157.949 16.67 157.949 14.219C157.949 11.863 156.467 11.103 154.073 10.381L152.857 10.02C151.28 9.526 150.311 9.032 150.311 7.759C150.311 6.486 151.375 5.688 152.952 5.688C154.605 5.688 155.46 6.429 155.859 7.702L157.626 7.55C157.284 5.46 155.726 4.111 153.009 4.111C150.197 4.111 148.335 5.612 148.335 7.854C148.335 10.001 149.76 11.027 152.097 11.692L153.313 12.034C154.985 12.509 156.011 12.946 156.011 14.352C156.011 15.758 154.852 16.708 153.028 16.708C151.185 16.708 150.064 15.796 149.703 14.295ZM162.804 6.011V18H164.666V6.011H168.77V4.358H158.681V6.011H162.804Z" fill="#EFEDEA"/>
<path d="M207.5 18V17.43L203.358 12.224C205.22 11.901 206.835 10.628 206.835 8.253C206.835 5.232 204.422 4.358 201.819 4.358H197.354V18H199.197V12.395H201.344L205.695 18H207.5ZM199.197 10.799V5.954H201.876C204.004 5.954 204.992 6.714 204.992 8.329C204.992 9.849 203.89 10.799 201.743 10.799H199.197ZM212.506 12.756V18H214.368V12.756L218.928 5.023V4.358H217.294L215.565 7.436C214.919 8.595 214.159 9.887 213.513 11.046C212.772 9.773 212.221 8.728 211.48 7.417L209.751 4.358H208.022V5.023L212.506 12.756Z" fill="#EFEDEA"/>
<path d="M5.39685 12.1532L13.6561 3.90131C14.2257 3.33222 14.9662 3.01921 15.7637 3.01921C16.5611 3.01921 17.3016 3.33222 17.8712 3.90131L18.5263 4.55577L19.8079 3.27531L19.1528 2.62085C18.2415 1.71029 17.0453 1.22656 15.7637 1.22656C14.4821 1.22656 13.2859 1.71029 12.3745 2.62085L4.11523 10.8727L5.39685 12.1532Z" fill="#EFEDEA"/>
<path d="M16.4189 6.63405L15.1373 5.35358L6.878 13.6055C5.7103 14.7721 3.8306 14.7721 2.66291 13.6055C1.49522 12.4388 1.49522 10.5608 2.66291 9.39416L9.78299 2.28046L8.52985 1L1.40978 8.11369C-0.469925 9.99171 -0.469925 13.0079 1.40978 14.8859C2.32115 15.7965 3.51732 16.2802 4.79893 16.2802C6.08055 16.2802 7.27672 15.7965 8.18809 14.8859L16.4189 6.63405Z" fill="#EFEDEA"/>
<path d="M24.6499 8.11303C23.7385 7.20248 22.5424 6.71875 21.2608 6.71875C19.9791 6.71875 18.783 7.20248 17.8716 8.11303L9.6123 16.3649L10.8939 17.6454L19.1532 9.3935C20.3209 8.22685 22.2006 8.22685 23.3683 9.3935C23.9379 9.96259 24.2512 10.7024 24.2512 11.4992C24.2512 12.2959 23.9379 13.0357 23.3683 13.6048L16.2482 20.7185L17.5298 21.999L24.6499 14.8853C26.5296 13.0073 26.5296 9.99105 24.6499 8.11303Z" fill="#EFEDEA"/>
<path d="M20.6345 10.8438L12.3752 19.0956C11.2075 20.2623 9.32783 20.2623 8.16013 19.0956L7.50509 18.4412L6.25195 19.7216L6.907 20.3761C7.81837 21.2866 9.01454 21.7704 10.2962 21.7704C11.5778 21.7704 12.7739 21.2866 13.6853 20.3761L21.9446 12.1242L20.6345 10.8438Z" fill="#EFEDEA"/>
</svg>
